<svg id="图层_4" data-name="图层 4" xmlns="http://www.w3.org/2000/svg" viewBox="0 0 1209.1 1253.8"><title>Ant Man</title><g id="Ant_man" data-name="Ant man"><path d="M4943.7,2340.6v250.8s-90.2,17.6-87,169.9,59,198.9,59,198.9l1.1,237.3s13.4,155.4,120.1,175.1h294.8v-36.2l-282.3,4.1s-95.3-26.9-99.5-151.3l-3.1-229.3,61.5-.7-2.8-382.7-31.1.4.7-236.3Z" transform="translate(-4856.6 -2230.8)" style="fill:#a2afb9"/><rect x="0.1" y="394.1" width="30.4" height="121.57" style="fill:#e60012"/><path d="M4920.7,2601.4s-64.2,12.8-64.1,172,59.1,186.8,59.1,186.8Z" transform="translate(-4856.6 -2230.8)" style="fill:#6e7880"/><path d="M5978.5,2340.6v250.8s90.2,17.6,87.1,169.9-59.1,198.9-59.1,198.9l-1,237.3s-13.5,155.4-120.2,175.1H5590.5v-36.2l282.4,4.1s95.3-26.9,99.4-151.3l3.1-229.3-61.4-.7,2.7-382.7,31.1.4-.7-236.3Z" transform="translate(-4856.6 -2230.8)" style="fill:#a2afb9"/><rect x="6035.2" y="2624.9" width="30.4" height="121.57" transform="translate(7244.2 3140.5) rotate(-180)" style="fill:#e60012"/><path d="M6001.5,2601.4s64.2,12.8,64.2,172-59.2,186.8-59.2,186.8Z" transform="translate(-4856.6 -2230.8)" style="fill:#6e7880"/><path d="M4992.4,2576.1s121.8-318.5,319.2-324.2,344,0,344,0,219.8,66,279.2,345.7-16.6,775-288.7,771.2-366.1,8.7-366.1,8.7-243.7-64.8-265.7-317.7Z" transform="translate(-4856.6 -2230.8)" style="fill:#5b636b"/><rect x="403.4" y="106" width="429.3" height="235.9" style="fill:#90a0aa"/><path d="M5248.2,2570.7s63.5-112.6,115.3-115.4,184.6-13.3,239.6,3.7c35.3,10.9,84.4,58.5,103.8,91.6v366.8l-175.2,33.4-7.9,63.7h-93.9l-18.7-56.3-163-65.6Z" transform="translate(-4856.6 -2230.8)" style="fill:#afc2ce"/><path d="M5141.8,2470.5s-56.3,271.5-20.2,333.6,100.3,84.5,100.3,84.5Z" transform="translate(-4856.6 -2230.8)" style="fill:#86959f"/><path d="M5798.5,2496.1s56.3,271.4,20.2,333.6-100.3,84.5-100.3,84.5Z" transform="translate(-4856.6 -2230.8)" style="fill:#86959f"/><path d="M5742.1,2295.1s81.5,69.8,88.4,82.9-96,522.2-96,522.2h-38.7Z" transform="translate(-4856.6 -2230.8)" style="fill:#bb1953"/><path d="M5213.7,2303.3s-81.5,69.8-88.4,82.9,96,522.2,96,522.2H5260Z" transform="translate(-4856.6 -2230.8)" style="fill:#bb1953"/><path d="M5098.3,2992.7s64.9-110.5,115.4-111.2,75.2,0,75.2,0,140.3,63.6,145.8,91.9v96.7s-49,80.1-168.2,102.9-168.2-107.1-168.2-107.1Z" transform="translate(-4856.6 -2230.8)" style="fill:#3e3a39"/><path d="M5121.6,2994.3s53.4-90.9,94.9-91.4,61.9,0,61.9,0,115.4,52.2,119.9,75.5V3058s-40.3,65.9-138.3,84.6-138.4-88-138.4-88Z" transform="translate(-4856.6 -2230.8)" style="fill:#c6193f"/><path d="M5857.4,2978.7s-64.9-110.5-115.3-111.2-75.3,0-75.3,0-140.2,63.6-145.8,91.9v96.7s49.1,80.1,168.2,102.9,168.2-107,168.2-107Z" transform="translate(-4856.6 -2230.8)" style="fill:#3e3a39"/><path d="M5834.1,2980.4s-53.4-90.9-94.8-91.5-62,0-62,0-115.3,52.3-119.9,75.6V3044s40.4,65.9,138.4,84.7,138.3-88.1,138.3-88.1Z" transform="translate(-4856.6 -2230.8)" style="fill:#c6193f"/><rect x="335.7" y="137.1" width="570.4" height="27.98" style="fill:#5b636b"/><path d="M5134.9,2340.6s105.5-111.5,345.6-109.8c245.3,1.8,317.5,109.8,317.5,109.8Z" transform="translate(-4856.6 -2230.8)" style="fill:#afc2ce"/><polygon points="439.6 1162.6 439.6 1000 578.1 902.3 664.5 900.1 789.1 995 791.7 1160.8 643.7 1253.8 585.2 1253.8 439.6 1162.6" style="fill:#6d7a8b"/><polygon points="471.6 1154.5 471.6 1022.5 584 943.2 654.1 941.4 755.2 1018.5 757.3 1153.1 637.2 1228.5 589.7 1228.5 471.6 1154.5" style="fill:#545f6e"/><polygon points="472.8 1154.5 472.8 1022.5 585.2 943.2 655.3 941.4 756.4 1018.5 758.5 1153.1 638.4 1228.5 590.9 1228.5 472.8 1154.5" style="fill:#545f6e"/><path d="M5421.2,3278.3s-39,29.1-38.3,70.5,7.9,70.5,57,74.9v-28.6s-34.9-11.5-31.5-44.8a54.6,54.6,0,0,1,31.5-44.4v-29Z" transform="translate(-4856.6 -2230.8)" style="fill:#373f4c"/><path d="M5521.8,3278.3s39,29.1,38.4,70.5-8,70.5-57,74.9v-28.6s34.8-11.5,31.4-44.8a54.6,54.6,0,0,0-31.4-44.4v-29Z" transform="translate(-4856.6 -2230.8)" style="fill:#373f4c"/><circle cx="365.4" cy="1052.5" r="62.9" style="fill:#86959f"/><circle cx="365.4" cy="1057.6" r="53.2" style="fill:#343a3f"/><circle cx="880.7" cy="1047.9" r="62.9" style="fill:#86959f"/><circle cx="880.7" cy="1053" r="53.2" style="fill:#343a3f"/></g></svg>