<svg id="图层_4" data-name="图层 4" xmlns="http://www.w3.org/2000/svg" viewBox="0 0 1142.6 1320.6"><title>Black Panther</title><g id="Black_Panther" data-name="Black Panther"><path d="M5474.4,3407.8s-347.4-111.9-377.5-312.3-13.4-611.3-13.4-611.3,91.9-142,118.6-178.7,8.4-210.5,8.4-210.5,131.9,23.4,162,38.4,536.1,10.1,536.1,10.1,137-58.5,155.4-48.5c0,0,1.6,137,8.3,138.7s152,238.8,148.7,285.6,0,569.5,0,569.5-187.1,325.7-362.5,325.7S5474.4,3407.8,5474.4,3407.8Z" transform="translate(-5078.5 -2093.9)" style="fill:#3c414a"/><path d="M5262.3,3284.2l148.6-172s-305.6-128.6-320.7-205.4-11.3-410.1-11.3-410.1c-1.7,1.3,49.9-66.8,111.7-105.5,32.7-20.6,141.5-72.2,180.2-72.4,10.4,0,41.3-.9,41.3-.9l-41.3,381.7,203.8,125.3v123.6l35.1,1.7v-162s-167.1-63.5-170.4-110.3,26.7-364.1,63.5-392.5h106.9v332.4s58.4,106.9,101.9-1.7l8.3-330.7h95.2c5-2.1,52.5,186.4,58.3,218.6,0,0,28.6,143.9-1.5,192.3s-148.7,98.6-148.7,98.6l1.7,155.3h28.4l1.7-128.6s197.1-90.2,198.7-152-15-317.4-15-317.4,243,43.5,276.4,152c-9.1.9,25.2,321.6-10.8,409.2-35.1,85.4-314,193.8-314,193.8L6051,3280.5s-63,134-218.4,134H5474.4S5355.8,3406.2,5262.3,3284.2Z" transform="translate(-5078.5 -2093.9)" style="fill:#5e5e65"/><path d="M5292.3,2841.6l202.1,128.6s-108.5,85.2-160.3,30.1S5292.3,2841.6,5292.3,2841.6Z" transform="translate(-5078.5 -2093.9)" style="fill:#fff"/><path d="M6008.9,2841.6l-202.1,128.6s108.5,85.2,160.3,30.1S6008.9,2841.6,6008.9,2841.6Z" transform="translate(-5078.5 -2093.9)" style="fill:#fff"/><polygon points="395.9 96.4 456 39.6 686.5 39.6 728.2 96.4 395.9 96.4" style="fill:#5b5d64"/></g></svg>