<svg id="图层_4" data-name="图层 4" xmlns="http://www.w3.org/2000/svg" viewBox="0 0 1115.7 1282.5"><title>Captain  American</title><g id="captain_American" data-name="captain  American"><path d="M5989.1,2876.3l2.2-189.2s90.5,37.1,92.4,94.6S5989.1,2876.3,5989.1,2876.3Z" transform="translate(-4968 -2094.1)" style="fill:#efdab3"/><path d="M5062.7,2897l-2.2-189.3s-90.5,37.2-92.4,94.7S5062.7,2897,5062.7,2897Z" transform="translate(-4968 -2094.1)" style="fill:#efdab3"/><path d="M5038.7,3006.4l6.7-616.4s121.7-251.2,319.4-295.9H5683s275.8,88.2,326.1,321.6l-6.7,581.8s-130.7,326.1-369.6,323.8-233.4,0-233.4,0S5158.2,3322.4,5038.7,3006.4Z" transform="translate(-4968 -2094.1)" style="fill:#5579aa"/><path d="M5062.7,3045.4l918.7-3.1s-188.5,286.4-461.7,278.2S5160.3,3227.6,5062.7,3045.4Z" transform="translate(-4968 -2094.1)" style="fill:#efdab3"/><path d="M5251.1,2762.2c11.8.1-216.9-186-25.3-441.4,183.4-244.6,555-120,641.6,38.5,73.8,134.9-5,454.1-176.2,460s-337.4,5.5-337.4,5.5S5281.6,2803.2,5251.1,2762.2Z" transform="translate(-4968 -2094.1)" style="fill:#739cc2"/><path d="M5052.1,3026.8h937s-88.3,309-458,302.3S5126.9,3173.4,5052.1,3026.8Z" transform="translate(-4968 -2094.1)" style="fill:none;stroke:#40220f;stroke-miterlimit:10"/><rect x="457" y="1187.6" width="189.3" height="94.85" style="fill:#775e6b"/><text transform="translate(405.7 601.3)" style="font-size:379.6677551269531px;fill:#231815;font-family:BowlbyOneSC-Regular, Bowlby One SC">A</text><path d="M5176,2215.8s100.5,53.6,101.7,187.6l-12.3,481.3h64.7V2333.1s-92.6-164.2-122.8-161.9S5176,2215.8,5176,2215.8Z" transform="translate(-4968 -2094.1)" style="fill:#3d5089"/><path d="M5875.1,2204.1s-100.5,53.6-101.6,187.6l12.2,481.3H5721V2321.4s92.7-164.2,122.8-162S5875.1,2204.1,5875.1,2204.1Z" transform="translate(-4968 -2094.1)" style="fill:#3d5089"/><path d="M5112.6,2739.3s200.2,130.7,411.6,113c101.8-8.6,294.5,1.6,397-96,0,0,36.2,251.2-383.7,250.4S5100.4,2812.4,5112.6,2739.3Z" transform="translate(-4968 -2094.1)" style="fill:#2e404f"/><path d="M5220.6,2826.1s111.5,19.2,129.4,43.2-24.4,77.6-64.7,73.8S5209.2,2881.5,5220.6,2826.1Z" transform="translate(-4968 -2094.1)" style="fill:#efdab3"/><path d="M5816.6,2832.8s-111.5,19.2-129.4,43.2,24.4,77.6,64.7,73.8S5828,2888.2,5816.6,2832.8Z" transform="translate(-4968 -2094.1)" style="fill:#efdab3"/></g></svg>