<svg id="图层_4" data-name="图层 4" xmlns="http://www.w3.org/2000/svg" xmlns:xlink="http://www.w3.org/1999/xlink" viewBox="0 0 1121 1316"><defs><linearGradient id="未命名的渐变_15" x1="5063.64" y1="2833.35" x2="6184.64" y2="2833.35" gradientUnits="userSpaceOnUse"><stop offset="0.04" stop-color="#8b2d3e"/><stop offset="1" stop-color="#b84250"/></linearGradient></defs><title>Deadpool</title><g id="Deadpool"><path d="M5064.4,2556c1.8-139,158.7-375.8,406.2-379.2s333,.6,333,.6,327.5,91.8,376.3,345.4c0,0,14.6,448.1-7.5,584.1-18.1,111.2-126.2,353.4-371.4,384.4H5449.7s-386.2-74.1-385.3-346C5064.4,3145.3,5062.7,2689.6,5064.4,2556Z" transform="translate(-5063.6 -2175.4)" style="fill:url(#未命名的渐变_15)"/><path d="M5482.5,3488s-196.4-1127.7-135.4-1291.5c0,0-24,7.5-42.5,21.9s81.9,1046.9,142.9,1269.6Z" transform="translate(-5063.6 -2175.4)" style="fill:#231815"/><path d="M5760.1,3488s194.5-1110.5,133.5-1274.3c0,0,24,7.5,42.5,21.9S5858.6,3265.3,5797.6,3488Z" transform="translate(-5063.6 -2175.4)" style="fill:#231815"/><path d="M5151.7,3011.3V2869.7s97.8-179.1,135.2-186.4,140.7,43,235.8,235.7v186.4s-85.9,125.2-220.2,53.9S5151.7,3011.3,5151.7,3011.3Z" transform="translate(-5063.6 -2175.4)" style="fill:#231815"/><circle cx="298.2" cy="839.6" r="63" style="fill:#fff"/><path d="M6085.4,3002.2V2860.6s-97.7-179.1-135.2-186.4-140.7,42.9-235.7,235.7v186.4s85.9,125.2,220.2,53.9S6085.4,3002.2,6085.4,3002.2Z" transform="translate(-5063.6 -2175.4)" style="fill:#231815"/><circle cx="811.7" cy="830.5" r="63" style="fill:#fff"/></g></svg>