<svg id="图层_4" data-name="图层 4" xmlns="http://www.w3.org/2000/svg" viewBox="0 0 1123.6 1347"><title>Doctor Strange</title><g id="Doctor_Strange" data-name="Doctor Strange"><path d="M5018.3,2160.1l-4.2,426.7s-91.1,21.7-91.1,94.2c0,67.3,33.1,94.2,100.5,96.3v349h870.9l5.2-352.1s68.3-9.3,67.3-74.6-59.1-72.4-63.2-77.6-5.2-489.9-5.2-489.9l-206.1-66.2Z" transform="translate(-4843.3 -1923.7)" style="fill:#e5c0a1"/><path d="M5250.2,1924s-204,47.6-253.7,227.8c-9.7,35.2-96.3,137.7-153.2,132.6,0,0,111.8,64.2,222.6,34.1,0,0-6.2,50.8,21.8,75.6s68.3,50.8,68.3,50.8l11.4-166.8s362.5,53.9,438.1,2.1c0,0,38.3-29,48.6-52.8l111.9,4.1s13.4,19.7,31,143,121.2,243.3,125.3,247.5,9.4-445.3,9.4-445.3-82.9-262-444.3-252.7Z" transform="translate(-4843.3 -1923.7)" style="fill:#40220f"/><path d="M5197,3007.2s-30.6-121.2,144.4-170.9H5562s142.9,49.7,141.8,144-166.7,154.3-166.7,154.3H5375.6S5222.9,3117,5197,3007.2Z" transform="translate(-4843.3 -1923.7)" style="fill:#40220f"/><path d="M5430.4,3071.4v-91.1h39.4v87h134.6s57-31.1,48.7-87-9.3-93.2-117-94.3-191.6,0-191.6,0-89.1-.4-91.1,90.4,62.1,90.9,84.9,90.9S5430.4,3071.4,5430.4,3071.4Z" transform="translate(-4843.3 -1923.7)" style="fill:#e5c0a1"/><rect x="499.7" y="1026.9" width="212.8" height="57.25" style="fill:#c2a38a"/><path d="M5288.8,3090.8l326-1.5s-82.4,71.7-123.3,124-44.2,57.5-44.2,57.5-19.5-32.4-45.3-57Z" transform="translate(-4843.3 -1923.7)" style="fill:#40220f"/><rect x="5131.7" y="2580" width="213.8" height="36.76" transform="translate(-3199.6 -3937.4) rotate(25.7)" style="fill:#231815"/><path d="M5172.6,2673.7s32.1,87,110.3,64.3C5282.9,2738,5288.6,2636.5,5172.6,2673.7Z" transform="translate(-4843.3 -1923.7)" style="fill:#231815"/><rect x="5540.9" y="2581.1" width="213.8" height="36.76" transform="translate(7020.9 570.6) rotate(154.3)" style="fill:#231815"/><path d="M5713.8,2674.8s-32.1,87-110.3,64.2C5603.5,2739,5597.8,2637.5,5713.8,2674.8Z" transform="translate(-4843.3 -1923.7)" style="fill:#231815"/><rect x="964.8" y="438.3" width="120.6" height="60.58" style="fill:#fff"/><rect x="988.3" y="527.9" width="96.1" height="29.51" style="fill:#fff"/><rect x="1016.6" y="577.6" width="65.2" height="33.14" style="fill:#fff"/></g></svg>