<svg id="图层_4" data-name="图层 4" xmlns="http://www.w3.org/2000/svg" viewBox="0 0 1300.2 1425.2"><title>Hulk</title><g id="Hulk"><path d="M4931.7,2755.5s-83.8,58.8-85.5,97.4-9.4,130.8,8.2,168c12.8,26.9,73.9,62.2,105.9,54.6,0,0,57.1,326.8,393.1,385.6h307.5s305.7-84,367.9-404.9c0,0,109.2,10.1,114.3-132.7,0,0,11.7-141.2-127.7-131.1L5904.5,2448H5062.7Z" transform="translate(-4843.1 -2035.9)" style="fill:#64b845"/><path d="M4933.4,2864.7s-15.1-10.1-25.2-110.9,12.6-262.1,12.6-262.1,36.9-24.1,42.8-37c4.7-10.3,7.5-36.9,0-45.3s-45.3-11.8-45.3-11.8,48.7-114.2,176.4-127.7c0,0-7-88.9,10-110.9,6.9-8.8,42-15.1,42-15.1s-10,13.4,10.1-20.2,60.5,8.4,60.5,8.4v70.6l57.1-16.8s63.9-163.9,121-148.8,73.9-1.2,73.9-1.2l-13.4,81.1-37,42h134.4l236.9-23.5-11.7,68.9,126,16.8v38.6s62.1,8.4,62.1,35.3-48.7,0-50.4,28.6,77.3,82.3,77.3,82.3v70.6l47.1,16.8s13.4,60.4,15.1,68.9,16.8,260.4,16.8,260.4-60.3-17.8-80.7-39.5c-34.8-37.1-114.2-202.5-114.2-202.5l-28.6,10.1s-18.4,104.2-45.3,110.9-79-87.4-137.8-122.6-72.2,144.4-72.2,144.4-89.1-139.4-116-132.7-75.6,37-90.7,110.9c0,0-73.9-83.6-95.8-84.6s-112.5,44.3-139.4,101.4c0,0-43.7-97.4-58.8-82.3S4980.4,2686.6,4933.4,2864.7Z" transform="translate(-4843.1 -2035.9)" style="fill:#54885e"/><rect x="5140.8" y="2895.5" width="231.9" height="50.72" transform="translate(-3271.9 -3867) rotate(23.1)" style="fill:#231815"/><ellipse cx="418.5" cy="965.6" rx="50.7" ry="94.8" style="fill:#231815"/><rect x="5627.8" y="2893" width="231.9" height="50.72" transform="translate(7329.2 1308.3) rotate(156.9)" style="fill:#231815"/><ellipse cx="895.8" cy="963.1" rx="50.7" ry="94.8" style="fill:#231815"/><rect x="539.1" y="1180.7" width="228.1" height="79.39" style="fill:#fff"/><path d="M5353.2,3248.2H5643s0,85.7-142.4,85.6C5408.6,3333.8,5368.9,3315.6,5353.2,3248.2Z" transform="translate(-4843.1 -2035.9)" style="fill:#c30d23"/></g></svg>