<svg id="图层_4" data-name="图层 4" xmlns="http://www.w3.org/2000/svg" viewBox="0 0 1029.6 1291.7"><title>Iron Man</title><g id="iron_man" data-name="iron man"><path d="M5036.2,3425.5V2767.6s119.3-326.3,347-340,374.1-4.8,374.1-4.8,248.9,85.3,305.9,338l-9.1,665.5s-127.5,239.8-327.9,285.3H5411.3S5163.7,3687.4,5036.2,3425.5Z" transform="translate(-5033.5 -2420)" style="fill:#be2720"/><path d="M5350.6,2709.2s209.4-132.1,375.6,0c0,0-20.5,337.7-173,354.4S5350.6,2709.2,5350.6,2709.2Z" transform="translate(-5033.5 -2420)" style="fill:#e60012"/><path d="M5154.8,2807.1s78.9-271,272.4-298.3h248.2s221.6,49.3,258.7,267.9-250.4,400.7-250.4,400.7H5460.6S5196.5,3072.7,5154.8,2807.1Z" transform="translate(-5033.5 -2420)" style="fill:#e72d29"/><path d="M5150.1,2811.3s99.5-82.6,139-62.1,65.7,356,267.5,361.6c185.6,5.1,256.1-355.3,256.1-355.3s116.9-6.1,158.6,80.4l-5.3,268.6-62.2,139.7-252.6,282.3H5451.5L5210.9,3248l-63.7-126.8Z" transform="translate(-5033.5 -2420)" style="fill:#e7c2aa"/><polygon points="2.6 889.9 135.5 779.3 195.6 779.3 418 1106.5 359.5 1216.5 2.6 889.9" style="fill:#d29362"/><polygon points="1029.6 887.9 910.7 785.5 847.7 785.5 617.6 1106.5 679.2 1216.5 1029.6 887.9" style="fill:#d68d65"/><ellipse cx="749.9" cy="865.2" rx="52.7" ry="40.6" style="fill:#fff100"/><rect x="5713.6" y="3240.8" width="189.7" height="32.63" transform="translate(6583.4 4094.2) rotate(-180)" style="fill:#efefef"/><ellipse cx="283.7" cy="865.2" rx="52.7" ry="40.6" style="fill:#fff100"/><rect x="163.8" y="820.8" width="189.7" height="32.63" style="fill:#efefef"/><path d="M5100.1,2857.3l25.1,238.9-91.7,50.7,2.7,163,155-109,138.9,91.1h455.3l124.1-72.9,153.7,94.9V3144l-66.8-53.9-.4-232.8-59.9-66.2L5914,3006.3s-112.7,187.8-199.2,191.2-325.5,3.4-325.5,3.4-187.8-84.2-202.6-184.4-31.9-209.4-31.9-209.4Z" transform="translate(-5033.5 -2420)" style="fill:#d9a781"/></g></svg>