<svg id="图层_4" data-name="图层 4" xmlns="http://www.w3.org/2000/svg" viewBox="0 0 1221.3 1322.8"><title>Thor</title><g id="Thor"><path d="M6089.7,3062.7v-183s89.2,9.2,82.3,91.5S6089.7,3062.7,6089.7,3062.7Z" transform="translate(-4951.1 -2171.9)" style="fill:#cca98f"/><path d="M5033.7,3048.8v-183s-89.2,9.2-82.2,91.5S5033.7,3048.8,5033.7,3048.8Z" transform="translate(-4951.1 -2171.9)" style="fill:#cca98f"/><path d="M5062.7,3216.7,4998.9,2465l80-9.3-15.1-133.2,77.6,12.7s3.5-89.2,24.3-104.2,17.4-12.8,59.1,13.9,90.4,31.3,97.3-15.1,0-57.9,0-57.9,163.4,16.2,202.7,55.6,192.3-1.2,192.3-1.2l414.7,242.1L6064.6,3292l-389.2,202.8H5478.5S5134.5,3391.7,5062.7,3216.7Z" transform="translate(-4951.1 -2171.9)" style="fill:#ad5f22"/><path d="M5100.9,2857.7l113.5-300.1h93.8s256,96.2,302.4,71.9,274.5-63.8,274.5-63.8l84.5,5.8L5987,2780s68.4,63.8,81.1,68.4,0,181.8,0,181.8-114.7,302.4-239.8,281.5c0,0-56.7-127.4-118.1-134.3s-282.7,8.1-282.7,8.1-61.4,86.8-59,112.3-112.4,9.3-178.4-96.1C5190.1,3201.7,5087,3157.7,5100.9,2857.7Z" transform="translate(-4951.1 -2171.9)" style="fill:#f8c39d"/><path d="M5725.2,2955c13.9-8.2,162.2-105.5,190-95s45.2,77.6,27.8,79.9-171.4,37.1-171.4,37.1l-46.4,4.6Z" transform="translate(-4951.1 -2171.9)" style="fill:#9d6a35"/><circle cx="375.7" cy="861.8" r="134.4" style="fill:#202424"/><path d="M5252.6,2905.1s-1.1-67.5,44-45.9,187.7,112,187.7,112S5310.5,2970,5252.6,2905.1Z" transform="translate(-4951.1 -2171.9)" style="fill:#9d6a35"/><path d="M5782,3048.8s61.4-24.3,95-45.2,31.3,62.6,0,67.2S5788.9,3077.7,5782,3048.8Z" transform="translate(-4951.1 -2171.9)" style="fill:#2f3137"/><path d="M5545.7,3348.8v-36l-61.4,3.6v-31.3h198.1v27.7h-70.7v34.8l128.6-1.1s16.2-88.1-26.6-103.1-186.2-18.5-218.6,0l-64.1,6.9v95Z" transform="translate(-4951.1 -2171.9)" style="fill:#e0c2a1"/></g></svg>