<svg id="图层_2" data-name="图层 2" xmlns="http://www.w3.org/2000/svg" viewBox="0 0 4600 471.4"><title>Title</title><rect width="4600" height="471.42" style="fill:#231815;opacity:0.73"/><g id="Marvel_title" data-name="Marvel title"><rect x="1314.7" y="47.7" width="951.9" height="382.08" style="fill:#e60012"/><path d="M4659.8,2969.4V2647.7h74.5l26.1,158.4,27.8-158.4h72.4v279.8l44.6-279.8h78.4l40.3,270,2.7-270h75.6s55,19.6,61,45.2l-3.3-45.2h59.9l26.1,189.5,26.2-189.5h163.2v59.9l-53.3-1.1.5,71.3h52.8v62.1h-53.8V2909h53.8v58.2H5324.8V2685.8l-44.6,283.6h-68l-31.6-194.3s0,47.4-35.4,68.6l36.3,123.5-58.6.4L5097,2862.7h-15.6v105.4H4974l-7.8-48.8h-46.8l-5.1,50.1h-110l-1-150.2-26.2,150.2h-30.4l-27.3-150.2-.3,150.2Z" transform="translate(-3316.2 -2567.4)" style="fill:#fff"/><polygon points="1627.1 170.5 1611.8 300.8 1642.7 300.8 1627.1 170.5" style="fill:#e60012"/><path d="M5081.9,2706v100.1s39.2-2.9,39.2-50S5081.9,2706,5081.9,2706Z" transform="translate(-3316.2 -2567.4)" style="fill:#e60012"/><polygon points="2127.8 80.3 2186.9 80.3 2186.9 343.2 2235.6 343.2 2235.6 402 2127.8 402 2127.8 80.3" style="fill:#fff"/></g><path d="M5689.8,2963.9a121.1,121.1,0,0,1-24.3-3.9,73,73,0,0,1-20.9-9.6,58.1,58.1,0,0,1-16.9-16.6c-4.6-6.7-8.4-15.2-11.4-25.7s-4.9-22.5-5.6-36.2c0-2.5.7-3.9,2.3-4.2a6,6,0,0,0,2.3.3c6.3,0,16-.2,29-.7s22.6-.8,29-.8a4.3,4.3,0,0,1,3.8,2.6,27.1,27.1,0,0,1,2.2,6.3c.6,2.5,1.3,5,2.1,7.4a14.1,14.1,0,0,0,4.1,6.3,10.8,10.8,0,0,0,7.6,2.6c3.7,0,7-1.7,9.9-5.2s4.3-8.3,4.3-14.3a18,18,0,0,0-3.6-10.8,28.3,28.3,0,0,0-9.8-8.2c-4-2.1-7.8-3.8-11.5-5.3a105.3,105.3,0,0,0-11.2-3.8l-6.7-2c-18.6-8.4-32-18.9-40.2-31.3s-12.2-29.6-12.2-51.2c0-15.3,1.6-29,5-41.2s7.8-22.1,13.3-29.8a77,77,0,0,1,19.3-19.3,74.8,74.8,0,0,1,22.5-10.8,88.4,88.4,0,0,1,23.6-3.2q32.4,0,51.6,19.9c4.7,7.7,8.1,13.6,10.3,17.6a105.3,105.3,0,0,1,6.3,14.1,80.1,80.1,0,0,1,4.3,15.7,174.1,174.1,0,0,1,1.6,19l-4.1,6.9c-15.7,1-33.4,1.5-52.9,1.5a11.6,11.6,0,0,1-6-1.3,6.4,6.4,0,0,1-3-3.5c-.5-1.3-1-2.8-1.5-4.3l-1.3-4.4a6.6,6.6,0,0,0-2.7-3.5,9.3,9.3,0,0,0-5.3-1.3,12.7,12.7,0,0,0-3,.6,29.1,29.1,0,0,0-4.7,1.8,11.9,11.9,0,0,0-4.6,3.8,9.1,9.1,0,0,0-2,6,12.8,12.8,0,0,0,2.6,7.7,16.7,16.7,0,0,0,5.5,4.9c1.9,1,4.2,2.2,7.1,3.4l5.3,2.3c16.7,7,26.7,11.4,29.9,13q25.2,13.2,35.7,34.6c6.4,13.2,9.6,29.9,9.6,49.8a177.7,177.7,0,0,1-2.8,33.1c-1.9,9.9-4.3,18.3-7.4,25.2a73.8,73.8,0,0,1-11.5,18.3,66.7,66.7,0,0,1-30,20.8,98.6,98.6,0,0,1-16.6,4.7A145.1,145.1,0,0,1,5689.8,2963.9Z" transform="translate(-3316.2 -2567.4)" style="fill:#fff"/><path d="M5775.5,2759.2v-68.8h133.9a3.3,3.3,0,0,1,2.3,2.4,23,23,0,0,1,.5,5.3v61.1c-.2,3-1.3,4.6-3.3,4.6h-32.6v175.7l-.2.9a7.7,7.7,0,0,1-.1,1,2.3,2.3,0,0,1-.1.7c-.1.4-.1.7-.2.8a1.2,1.2,0,0,0-.2.7c-.1.3-.2.5-.3.5l-.5.4-.6.5-.7.3-.8.3h-7.4q-14.7,0-14.7-1.5h-2.8a15.3,15.3,0,0,1-2.7.2h-9.2l-7.6.2c-3.2.2-5.8.2-7.6.2h-6.5l-4.6-5.3v-41.3c.1-7.4.4-23.2,1-47.3s.9-43.3.9-57.3v-5c0-1,0-2.6.1-4.8s.1-3.7.1-4.7-.1-3.5-.1-7-.1-5.8-.1-6.8h-28.8a9.2,9.2,0,0,1-4.8-1.4A5,5,0,0,1,5775.5,2759.2Z" transform="translate(-3316.2 -2567.4)" style="fill:#fff"/><path d="M5920.9,2734.4c-.3-2.6-.5-9.8-.5-21.8,0-13.8.8-21.9,2.3-24.5h62.6v160.5c0,16.5,3,24.8,8.8,24.8,2.4,0,4.5-1.8,6.1-5.5a31.4,31.4,0,0,0,2.4-12.8v-28.3q.8-83.7.7-84.4c0-22.2-.2-38.2-.5-48.1,0-3.6,1.1-6.2,3.3-7.7H6070v29.8c-1,48.3-1.6,79.3-1.8,93.2v11.8c0,1.6,0,3.6-.1,6.2s-.1,4.3-.1,5.3c0,4.3,0,7.4.2,9.2V2857c0,17.7-1.1,30.4-3.2,38.2v.7a82.5,82.5,0,0,1-10.6,24.8,56.9,56.9,0,0,1-15.8,16.2,62.2,62.2,0,0,1-18.2,8.4,73.6,73.6,0,0,1-19.6,2.6,8.2,8.2,0,0,1-4.9-1.2h-2.7c0,1.3-1.2,1.9-3.5,1.9v.4c-1.7.1-6.6-.5-14.7-1.9h-5.3a44.3,44.3,0,0,1-14-5.3,54,54,0,0,1-13-11.4,70.8,70.8,0,0,1-11.1-17.5,108.1,108.1,0,0,1-7.8-24.6,181.2,181.2,0,0,1-3.4-31.7c.1-6.6.1-15.8.1-27.5s0-22.4.1-32,.2-18.9.5-28v-5.3c0-.7.1-1.7.2-3.1s.1-2.4.1-3-.1-4.8-.3-8.6-.2-6.7-.2-8.6v-6.1Z" transform="translate(-3316.2 -2567.4)" style="fill:#fff"/><path d="M6152,2687.4a107.1,107.1,0,0,1,28.3,3.4,70.9,70.9,0,0,1,43.5,35.2c5.1,9.4,9.2,21.6,12.2,36.6s4.6,32.5,4.6,52.4a256.3,256.3,0,0,1-3.1,40.5c-2.1,12.6-4.9,23.4-8.6,32.4a140.3,140.3,0,0,1-12.3,24.2,75.9,75.9,0,0,1-15.2,17.2,71.8,71.8,0,0,1-16.3,10.4,55,55,0,0,1-16.3,4.4h-79V2690.4l1.3.2a3.7,3.7,0,0,0,1.3.2,91.1,91.1,0,0,0,15-1.7,103.5,103.5,0,0,1,15.1-1.7Zm1.3,197.1a17.6,17.6,0,0,0,10.4-3.2,21.5,21.5,0,0,0,7.2-9.1,79.1,79.1,0,0,0,4.5-12.4,93.6,93.6,0,0,0,2.6-15.2c.5-5.9.9-11,1.1-15.4s.2-9.4.2-15v-13.8c0-.8-.3-5.2-.6-12.9a112.3,112.3,0,0,0-2.6-19.9,55.4,55.4,0,0,0-4.1-10.2,29.8,29.8,0,0,0-4.4-6.7,14,14,0,0,0-5.1-3.6,22.2,22.2,0,0,0-5.4-1.7,47.3,47.3,0,0,0-5.8-.3v4.2h-3.5v135.2Z" transform="translate(-3316.2 -2567.4)" style="fill:#fff"/><path d="M6253.9,2945.2V2694.3a3.7,3.7,0,0,1,1.9-2.8,7.4,7.4,0,0,0,2-1.8h61.9v248.6a23.2,23.2,0,0,1-1.1,5.5,1.8,1.8,0,0,1-1.6,1.4Z" transform="translate(-3316.2 -2567.4)" style="fill:#fff"/><path d="M6333.5,2814.2l-.2-4.2c1.5-20.8,2.9-35.2,4.2-43.4,2.9-19.1,8.3-35,16.1-47.9l2.7-4.6a50.3,50.3,0,0,1,16.8-18.3h4.4c7.5-5.2,19.9-10.1,37.1-14.5a59.7,59.7,0,0,1,13.5,1.6,103.7,103.7,0,0,1,15.7,5.3,54,54,0,0,1,16.6,11.9,69.5,69.5,0,0,1,13.3,19.4v5.3q18.9,39.1,18.9,87.9,0,54.8-15.2,89.3l-4.6,9.6a69.1,69.1,0,0,1-13.2,18.7,59.2,59.2,0,0,1-16.7,11.9,80.2,80.2,0,0,1-17,5.9,81,81,0,0,1-16.2,1.7,56.5,56.5,0,0,1-22.6-4.7,60.7,60.7,0,0,1-20.1-14.6,95.5,95.5,0,0,1-16.5-24.5c-4.8-9.6-8.7-21.3-11.6-35a265.3,265.3,0,0,1-5.4-45.4Zm63.3,1.5q0,67.2,15.5,67.2a11,11,0,0,0,7.4-2.6,19.2,19.2,0,0,0,5.1-8.2,90.5,90.5,0,0,0,3.2-11.3,82.6,82.6,0,0,0,1.8-14.3c.3-5.8.6-10.8.7-15.1s.2-9.6.2-15.7v-6.9c0-6.6-.3-12.9-.7-19.1s-1.3-12.2-2.4-18.4a43.2,43.2,0,0,0-5.1-14.9c-2.3-3.7-5.1-5.6-8.4-5.6q-17.2,0-17.3,56.5Z" transform="translate(-3316.2 -2567.4)" style="fill:#fff"/><line x1="2322.9" y1="61.1" x2="3151.7" y2="61.1" style="fill:#fff;stroke:#fff;stroke-miterlimit:10"/></svg>